<svg xmlns="http://www.w3.org/2000/svg" xmlns:svg="http://www.w3.org/2000/svg" id="svg2" width="808.283" height="430.571" version="1.1"><metadata id="metadata7"/><g id="layer1" transform="translate(82.214285,-235.14789)"><path style="fill:#0f0;stroke:green;stroke-width:3.5356204400000002" id="path2985" d="m 378.57142,354.50504 c 0,37.47646 -32.29946,67.85713 -72.14286,67.85713 -39.8434,0 -72.14286,-30.38067 -72.14286,-67.85713 0,-37.47647 32.29946,-67.85714 72.14286,-67.85714 39.8434,0 72.14286,30.38067 72.14286,67.85714 z" transform="matrix(0.54368408,0,0,0.58854829,151.97109,67.290273)"/><flowRoot id="flowRoot3011" transform="translate(10.000002,-215.71428)" xml:space="preserve" style="font-size:40px;font-style:normal;font-weight:400;line-height:125%;letter-spacing:0;word-spacing:0;fill:#000;fill-opacity:1;stroke:none;font-family:Sans;stroke-width:2"><flowRegion id="flowRegion3013"><rect id="rect3015" width="125.714" height="172.857" x="74.286" y="522.362" style="stroke-width:2"/></flowRegion><flowPara id="flowPara3017" style="font-size:20px;text-align:center;text-anchor:middle;stroke-width:2">Make valid block</flowPara></flowRoot><path style="fill:none;stroke:#000;stroke-width:3.53562044" id="path2985-9-2" d="m 378.57142,354.50504 c 0,37.47646 -32.29946,67.85713 -72.14286,67.85713 -39.8434,0 -72.14286,-30.38067 -72.14286,-67.85713 0,-37.47647 32.29946,-67.85714 72.14286,-67.85714 39.8434,0 72.14286,30.38067 72.14286,67.85714 z" transform="matrix(-0.54368408,0,0,0.58854829,708.88298,239.00457)"/><path style="fill:none;stroke:#000;stroke-width:2;stroke-linecap:butt;stroke-linejoin:miter;stroke-opacity:1" id="path3007-0" d="M 512.04066,424.54876 348.23893,303.60418"/><path style="fill:none;stroke:#000;stroke-width:2;stroke-linecap:butt;stroke-linejoin:miter;stroke-opacity:1" id="path3007-0-0" d="M 652.21428,586.50503 569.35714,477.93361"/><flowRoot id="flowRoot3011-5" transform="translate(418.16364,-206.42032)" xml:space="preserve" style="font-size:40px;font-style:normal;font-weight:400;line-height:125%;letter-spacing:0;word-spacing:0;fill:#000;fill-opacity:1;stroke:none;font-family:Sans;stroke-width:2"><flowRegion id="flowRegion3013-5"><rect id="rect3015-7" width="125.714" height="172.857" x="74.286" y="522.362" style="stroke-width:2"/></flowRegion><flowPara id="flowPara3017-0" style="font-size:20px;text-align:center;text-anchor:middle;stroke-width:2">Make invalid block</flowPara></flowRoot><path style="fill:none;stroke:#000;stroke-width:3.14099991" id="path2985-9-2-4-5" d="m 378.57142,354.50504 c 0,37.47646 -32.29946,67.85713 -72.14286,67.85713 -39.8434,0 -72.14286,-30.38067 -72.14286,-67.85713 0,-37.47647 32.29946,-67.85714 72.14286,-67.85714 39.8434,0 72.14286,30.38067 72.14286,67.85714 z" transform="matrix(0.69072127,0,0,0.58697731,208.55757,416.13291)"/><path style="fill:none;stroke:#000;stroke-width:2;stroke-linecap:butt;stroke-linejoin:miter;stroke-opacity:1" id="path3007-0-0-6" d="M 435.21429,585.64789 518.07143,477.07647"/><path style="fill:none;stroke:green;stroke-width:2;stroke-linecap:butt;stroke-linejoin:miter;stroke-opacity:1" id="path3007-0-8" d="M 125.242,419.97733 289.04372,299.03275"/><path style="fill:#0f0;stroke:green;stroke-width:3.5356204400000002" id="path2985-9-2-1" d="m 378.57142,354.50504 c 0,37.47646 -32.29946,67.85713 -72.14286,67.85713 -39.8434,0 -72.14286,-30.38067 -72.14286,-67.85713 0,-37.47647 32.29946,-67.85714 72.14286,-67.85714 39.8434,0 72.14286,30.38067 72.14286,67.85714 z" transform="matrix(-0.54368408,0,0,0.58854829,264.31155,242.14743)"/><path style="fill:none;stroke:green;stroke-width:2;stroke-linecap:butt;stroke-linejoin:miter;stroke-opacity:1" id="path3007-0-0-0" d="M 207.64285,589.64789 124.78571,481.07647"/><path style="fill:none;stroke:#000;stroke-width:2;stroke-linecap:butt;stroke-linejoin:miter;stroke-opacity:1" id="path3007-0-0-6-4" d="M -11.357139,586.79075 71.500001,478.21933"/><flowRoot id="flowRoot3011-2" transform="translate(-166.6935,-26.420318)" xml:space="preserve" style="font-size:40px;font-style:normal;font-weight:400;line-height:125%;letter-spacing:0;word-spacing:0;fill:#000;fill-opacity:1;stroke:none;font-family:Sans;stroke-width:2"><flowRegion id="flowRegion3013-1"><rect id="rect3015-6" width="125.714" height="172.857" x="74.286" y="522.362" style="stroke-width:2"/></flowRegion><flowPara id="flowPara3017-7" style="font-size:20px;text-align:center;text-anchor:middle;stroke-width:2">Challenge</flowPara></flowRoot><flowRoot id="flowRoot3011-2-8" transform="translate(94.258653,-38.715937)" xml:space="preserve" style="font-size:40px;font-style:normal;font-weight:400;line-height:125%;letter-spacing:0;word-spacing:0;fill:#000;fill-opacity:1;stroke:none;font-family:Sans;stroke-width:2"><flowRegion id="flowRegion3013-1-0"><rect id="rect3015-6-1" width="125.714" height="172.857" x="74.286" y="522.362" style="stroke-width:2"/></flowRegion><flowPara id="flowPara3017-7-2" style="font-size:20px;text-align:center;text-anchor:middle;stroke-width:2">Don&apos;t Challenge</flowPara></flowRoot><flowRoot id="flowRoot3011-2-8-1" transform="translate(539.97292,-37.23784)" xml:space="preserve" style="font-size:40px;font-style:normal;font-weight:400;line-height:125%;letter-spacing:0;word-spacing:0;fill:#000;fill-opacity:1;stroke:none;font-family:Sans;stroke-width:2"><flowRegion id="flowRegion3013-1-0-8"><rect id="rect3015-6-1-4" width="125.714" height="172.857" x="74.286" y="522.362" style="stroke-width:2"/></flowRegion><flowPara id="flowPara3017-7-2-3" style="font-size:20px;text-align:center;text-anchor:middle;stroke-width:2">Don&apos;t Challenge</flowPara></flowRoot><flowRoot id="flowRoot3011-2-0" transform="translate(279.97294,-24.430223)" xml:space="preserve" style="font-size:40px;font-style:normal;font-weight:400;line-height:125%;letter-spacing:0;word-spacing:0;fill:#000;fill-opacity:1;stroke:none;font-family:Sans;stroke-width:2"><flowRegion id="flowRegion3013-1-8"><rect id="rect3015-6-4" width="125.714" height="172.857" x="74.286" y="522.362" style="stroke-width:2"/></flowRegion><flowPara id="flowPara3017-7-5" style="font-size:20px;text-align:center;text-anchor:middle;stroke-width:2">Challenge</flowPara></flowRoot><flowRoot id="flowRoot3417" transform="translate(0,12)" xml:space="preserve" style="font-size:40px;font-style:normal;font-weight:400;line-height:125%;letter-spacing:0;word-spacing:0;fill:#000;fill-opacity:1;stroke:none;font-family:Sans;stroke-width:2"><flowRegion id="flowRegion3419"><rect id="rect3421" width="212.857" height="97.143" x="-65.714" y="602.362" style="stroke-width:2"/></flowRegion><flowPara id="flowPara3423" style="font-size:20px;stroke-width:2">(1, -10)</flowPara></flowRoot><flowRoot id="flowRoot3417-5-9" transform="translate(441.95243,8.607445)" xml:space="preserve" style="font-size:18px;font-style:normal;font-weight:400;line-height:125%;letter-spacing:0;word-spacing:0;fill:#000;fill-opacity:1;stroke:none;font-family:Sans;stroke-width:2"><flowRegion id="flowRegion3419-1-6"><rect id="rect3421-7-7" width="212.857" height="97.143" x="-65.714" y="602.362" style="font-size:18px;stroke-width:2"/></flowRegion><flowPara id="flowPara3423-3-4" style="font-size:18px;stroke-width:2">(-100, 10)</flowPara></flowRoot><flowRoot id="flowRoot3417-5-9-7" transform="translate(705.9293,8.0238075)" xml:space="preserve" style="font-size:15px;font-style:normal;font-weight:400;line-height:125%;letter-spacing:0;word-spacing:0;fill:#000;fill-opacity:1;stroke:none;font-family:Sans"><flowRegion id="flowRegion3419-1-6-2"><rect id="rect3421-7-7-6" width="212.857" height="97.143" x="-65.714" y="602.362" style="font-size:15px"/></flowRegion><flowPara id="flowPara3423-3-4-5" style="font-size:20px">(1, -δ)</flowPara></flowRoot><path style="fill:none;stroke:#000;stroke-width:3.14099991" id="path2985-9-2-4-5-4" d="m 378.57142,354.50504 c 0,37.47646 -32.29946,67.85713 -72.14286,67.85713 -39.8434,0 -72.14286,-30.38067 -72.14286,-67.85713 0,-37.47647 32.29946,-67.85714 72.14286,-67.85714 39.8434,0 72.14286,30.38067 72.14286,67.85714 z" transform="matrix(0.69072127,0,0,0.58697731,458.62899,416.8472)"/><path style="fill:#0f0;stroke:green;stroke-width:3.14099991000000012" id="path2985-9-2-4-5-8" d="m 378.57142,354.50504 c 0,37.47646 -32.29946,67.85713 -72.14286,67.85713 -39.8434,0 -72.14286,-30.38067 -72.14286,-67.85713 0,-37.47647 32.29946,-67.85714 72.14286,-67.85714 39.8434,0 72.14286,30.38067 72.14286,67.85714 z" transform="matrix(0.69072127,0,0,0.58697731,19.771849,415.70434)"/><path style="fill:none;stroke:#000;stroke-width:3.14099991" id="path2985-9-2-4-5-8-1" d="m 378.57142,354.50504 c 0,37.47646 -32.29946,67.85713 -72.14286,67.85713 -39.8434,0 -72.14286,-30.38067 -72.14286,-67.85713 0,-37.47647 32.29946,-67.85714 72.14286,-67.85714 39.8434,0 72.14286,30.38067 72.14286,67.85714 z" transform="matrix(0.69072127,0,0,0.58697731,-243.08529,414.8472)"/><flowRoot id="flowRoot3417-5" transform="translate(268.25768,9.1788732)" xml:space="preserve" style="font-size:40px;font-style:normal;font-weight:400;line-height:125%;letter-spacing:0;word-spacing:0;fill:#000;fill-opacity:1;stroke:none;font-family:Sans;stroke-width:2"><flowRegion id="flowRegion3419-1"><rect id="rect3421-7" width="212.857" height="97.143" x="-65.714" y="602.362" style="stroke-width:2"/></flowRegion><flowPara id="flowPara3423-3" style="font-size:20px;stroke-width:2">(1, 0)</flowPara></flowRoot></g></svg>