<svg xmlns="http://www.w3.org/2000/svg" xmlns:svg="http://www.w3.org/2000/svg" id="svg2" width="716.496" height="881.861" version="1.1"><metadata id="metadata7"/><g id="layer1" transform="translate(-19.208135,-88.186798)"><rect style="fill:none;stroke:#000;stroke-width:2.32239509;stroke-opacity:1" id="rect2987" width="154.335" height="56.236" x="53.821" y="375.221"/><path style="fill:none;stroke:#000;stroke-width:3;stroke-opacity:1" id="path2989" d="m 429.31483,197.26805 c 0,59.41549 -48.16576,107.58125 -107.58125,107.58125 -59.41548,0 -107.58125,-48.16576 -107.58125,-107.58125 0,-59.41548 48.16577,-107.581252 107.58125,-107.581252 59.41549,0 107.58125,48.165772 107.58125,107.581252 z"/><g id="g3025"><path id="path2991" d="m 335.37063,114.43555 c 0,8.08943 -6.55778,14.64721 -14.64721,14.64721 -8.08943,0 -14.64721,-6.55778 -14.64721,-14.64721 0,-8.08943 6.55778,-14.647215 14.64721,-14.647215 8.08943,0 14.64721,6.557785 14.64721,14.647215 z" style="fill:none;stroke:#000;stroke-width:3;stroke-opacity:1"/><path id="path2991-0" d="m 335.37063,114.43555 c 0,8.08943 -6.55778,14.64721 -14.64721,14.64721 -8.08943,0 -14.64721,-6.55778 -14.64721,-14.64721 0,-8.08943 6.55778,-14.647215 14.64721,-14.647215 8.08943,0 14.64721,6.557785 14.64721,14.647215 z" transform="translate(-1.5152153,164.14978)" style="fill:none;stroke:#000;stroke-width:3;stroke-opacity:1"/><path id="path2991-9" d="m 335.37063,114.43555 c 0,8.08943 -6.55778,14.64721 -14.64721,14.64721 -8.08943,0 -14.64721,-6.55778 -14.64721,-14.64721 0,-8.08943 6.55778,-14.647215 14.64721,-14.647215 8.08943,0 14.64721,6.557785 14.64721,14.647215 z" transform="translate(-83.337571,83.337582)" style="fill:none;stroke:#000;stroke-width:3;stroke-opacity:1"/><path id="path2991-05" d="m 335.37063,114.43555 c 0,8.08943 -6.55778,14.64721 -14.64721,14.64721 -8.08943,0 -14.64721,-6.55778 -14.64721,-14.64721 0,-8.08943 6.55778,-14.647215 14.64721,-14.647215 8.08943,0 14.64721,6.557785 14.64721,14.647215 z" transform="translate(85.357904,78.28682)" style="fill:none;stroke:#000;stroke-width:3;stroke-opacity:1"/></g><path style="fill:none;stroke:#000;stroke-width:3;stroke-opacity:1" id="path2991-2" d="m 335.37063,114.43555 c 0,8.08943 -6.55778,14.64721 -14.64721,14.64721 -8.08943,0 -14.64721,-6.55778 -14.64721,-14.64721 0,-8.08943 6.55778,-14.647215 14.64721,-14.647215 8.08943,0 14.64721,6.557785 14.64721,14.647215 z" transform="matrix(0.70226141,0.71191917,-0.71191917,0.70226141,234.17682,-169.27687)"/><path style="fill:none;stroke:#000;stroke-width:3;stroke-opacity:1" id="path2991-0-7" d="m 335.37063,114.43555 c 0,8.08943 -6.55778,14.64721 -14.64721,14.64721 -8.08943,0 -14.64721,-6.55778 -14.64721,-14.64721 0,-8.08943 6.55778,-14.647215 14.64721,-14.647215 8.08943,0 14.64721,6.557785 14.64721,14.647215 z" transform="matrix(0.70226141,0.71191917,-0.71191917,0.70226141,116.25137,-55.079525)"/><path style="fill:none;stroke:#000;stroke-width:3;stroke-opacity:1" id="path2991-9-3" d="m 335.37063,114.43555 c 0,8.08943 -6.55778,14.64721 -14.64721,14.64721 -8.08943,0 -14.64721,-6.55778 -14.64721,-14.64721 0,-8.08943 6.55778,-14.647215 14.64721,-14.647215 8.08943,0 14.64721,6.557785 14.64721,14.647215 z" transform="matrix(0.70226141,0.71191917,-0.71191917,0.70226141,118.32244,-168.08172)"/><path style="fill:none;stroke:#000;stroke-width:3;stroke-opacity:1" id="path2991-05-8" d="m 335.37063,114.43555 c 0,8.08943 -6.55778,14.64721 -14.64721,14.64721 -8.08943,0 -14.64721,-6.55778 -14.64721,-14.64721 0,-8.08943 6.55778,-14.647215 14.64721,-14.647215 8.08943,0 14.64721,6.557785 14.64721,14.647215 z" transform="matrix(0.70226141,0.71191917,-0.71191917,0.70226141,238.38649,-53.531129)"/><path style="fill:none;stroke:#000;stroke-width:3;stroke-linecap:butt;stroke-linejoin:miter;stroke-opacity:1" id="path3065" d="M 163.64471,374.54982 249.50768,265.45335"/><path style="fill:none;stroke:#000;stroke-width:1px;stroke-linecap:butt;stroke-linejoin:miter;stroke-opacity:1" id="path3069" d="M 195.96959,373.53967 308.09653,288.68686"/><path style="fill:none;stroke:#000;stroke-width:1px;stroke-linecap:butt;stroke-linejoin:miter;stroke-opacity:1" id="path3071" d="M 135.36044,373.53967 312.13714,128.0726"/><path style="fill:none;stroke:#000;stroke-width:1px;stroke-linecap:butt;stroke-linejoin:miter;stroke-opacity:1" id="path3073" d="M 180.81731,374.54982 390.92904,198.78328"/><rect style="fill:none;stroke:#000;stroke-width:2.33282423;stroke-opacity:1" id="rect2987-0" width="155.753" height="56.226" x="212.507" y="678.777"/><path style="fill:none;stroke:#000;stroke-width:3;stroke-opacity:1" id="path2991-05-8-8" d="m 335.37063,114.43555 c 0,8.08943 -6.55778,14.64721 -14.64721,14.64721 -8.08943,0 -14.64721,-6.55778 -14.64721,-14.64721 0,-8.08943 6.55778,-14.647215 14.64721,-14.647215 8.08943,0 14.64721,6.557785 14.64721,14.647215 z" transform="matrix(0.70226141,0.71191917,-0.71191917,0.70226141,533.03939,217.37989)"/><flowRoot id="flowRoot3131" transform="translate(-73.741136,-13.131983)" xml:space="preserve" style="font-size:40px;font-style:normal;font-weight:400;line-height:125%;letter-spacing:0;word-spacing:0;fill:#000;fill-opacity:1;stroke:none;font-family:Sans"><flowRegion id="flowRegion3133"><rect id="rect3135" width="174.756" height="113.137" x="510.127" y="126.052"/></flowRegion><flowPara id="flowPara3137" style="font-size:25px">Header chain</flowPara></flowRoot><path style="fill:none;stroke:#000;stroke-width:3;stroke-opacity:1" id="path2991-05-8-7" d="m 335.37063,114.43555 c 0,8.08943 -6.55778,14.64721 -14.64721,14.64721 -8.08943,0 -14.64721,-6.55778 -14.64721,-14.64721 0,-8.08943 6.55778,-14.647215 14.64721,-14.647215 8.08943,0 14.64721,6.557785 14.64721,14.647215 z" transform="matrix(0.70226141,0.71191917,-0.71191917,0.70226141,432.02413,210.30881)"/><path style="fill:none;stroke:#000;stroke-width:3;stroke-opacity:1" id="path2991-05-8-8-8" d="m 335.37063,114.43555 c 0,8.08943 -6.55778,14.64721 -14.64721,14.64721 -8.08943,0 -14.64721,-6.55778 -14.64721,-14.64721 0,-8.08943 6.55778,-14.647215 14.64721,-14.647215 8.08943,0 14.64721,6.557785 14.64721,14.647215 z" transform="matrix(0.70226141,0.71191917,-0.71191917,0.70226141,492.12821,199.70222)"/><path style="fill:none;stroke:#000;stroke-width:3;stroke-opacity:1" id="path2991-05-8-7-1" d="m 335.37063,114.43555 c 0,8.08943 -6.55778,14.64721 -14.64721,14.64721 -8.08943,0 -14.64721,-6.55778 -14.64721,-14.64721 0,-8.08943 6.55778,-14.647215 14.64721,-14.647215 8.08943,0 14.64721,6.557785 14.64721,14.647215 z" transform="matrix(0.70226141,0.71191917,-0.71191917,0.70226141,464.85408,234.0474)"/><path style="fill:none;stroke:#000;stroke-width:3;stroke-opacity:1" id="path3178" d="m 729.33014,523.5473 c 0,27.61565 -158.06511,50.00255 -353.04831,50.00255 -194.9832,0 -353.048309,-22.3869 -353.048309,-50.00255 0,-27.61564 158.065109,-50.00255 353.048309,-50.00255 194.9832,0 353.04831,22.38691 353.04831,50.00255 z"/><flowRoot id="flowRoot3131-2" transform="translate(61.912977,445.0207)" xml:space="preserve" style="font-size:40px;font-style:normal;font-weight:400;line-height:125%;letter-spacing:0;word-spacing:0;fill:#000;fill-opacity:1;stroke:none;font-family:Sans"><flowRegion id="flowRegion3133-9"><rect id="rect3135-2" width="174.756" height="113.137" x="510.127" y="126.052"/></flowRegion><flowPara id="flowPara3137-7" style="font-size:25px">Level 1 State</flowPara></flowRoot><path style="fill:none;stroke:#000;stroke-width:1;stroke-linecap:butt;stroke-linejoin:miter;stroke-opacity:1" id="path3069-8" d="m 395.23336,260.15108 75.23402,33.83807"/><flowRoot id="flowRoot3131-3" transform="translate(-70.417008,154.09676)" xml:space="preserve" style="font-size:40px;font-style:normal;font-weight:400;line-height:125%;letter-spacing:0;word-spacing:0;fill:#000;fill-opacity:1;stroke:none;font-family:Sans"><flowRegion id="flowRegion3133-3"><rect id="rect3135-6" width="174.756" height="113.137" x="510.127" y="126.052"/></flowRegion><flowPara id="flowPara3137-5" style="font-size:25px;text-align:center;text-anchor:middle">Level 1 Validators</flowPara></flowRoot><path style="fill:none;stroke:#000;stroke-width:3;stroke-opacity:1" id="path2991-05-8-7-8" d="m 335.37063,114.43555 c 0,8.08943 -6.55778,14.64721 -14.64721,14.64721 -8.08943,0 -14.64721,-6.55778 -14.64721,-14.64721 0,-8.08943 6.55778,-14.647215 14.64721,-14.647215 8.08943,0 14.64721,6.557785 14.64721,14.647215 z" transform="matrix(0.70226141,0.71191917,-0.71191917,0.70226141,394.64849,191.11592)"/><path style="fill:none;stroke:#000;stroke-width:3;stroke-opacity:1" id="path2991-05-8-7-2" d="m 335.37063,114.43555 c 0,8.08943 -6.55778,14.64721 -14.64721,14.64721 -8.08943,0 -14.64721,-6.55778 -14.64721,-14.64721 0,-8.08943 6.55778,-14.647215 14.64721,-14.647215 8.08943,0 14.64721,6.557785 14.64721,14.647215 z" transform="matrix(0.70226141,0.71191917,-0.71191917,0.70226141,395.65864,236.57278)"/><path style="fill:none;stroke:#000;stroke-width:3;stroke-opacity:1" id="path2991-05-8-7-5" d="m 335.37063,114.43555 c 0,8.08943 -6.55778,14.64721 -14.64721,14.64721 -8.08943,0 -14.64721,-6.55778 -14.64721,-14.64721 0,-8.08943 6.55778,-14.647215 14.64721,-14.647215 8.08943,0 14.64721,6.557785 14.64721,14.647215 z" transform="matrix(0.70226141,0.71191917,-0.71191917,0.70226141,362.82868,212.8342)"/><path style="fill:none;stroke:#000;stroke-width:3;stroke-opacity:1" id="path2991-05-8-7-8-2" d="m 335.37063,114.43555 c 0,8.08943 -6.55778,14.64721 -14.64721,14.64721 -8.08943,0 -14.64721,-6.55778 -14.64721,-14.64721 0,-8.08943 6.55778,-14.647215 14.64721,-14.647215 8.08943,0 14.64721,6.557785 14.64721,14.647215 z" transform="matrix(0.70226141,0.71191917,-0.71191917,0.70226141,325.45304,193.64131)"/><path style="fill:none;stroke:#000;stroke-width:3;stroke-opacity:1" id="path2991-05-8-7-2-4" d="m 335.37063,114.43555 c 0,8.08943 -6.55778,14.64721 -14.64721,14.64721 -8.08943,0 -14.64721,-6.55778 -14.64721,-14.64721 0,-8.08943 6.55778,-14.647215 14.64721,-14.647215 8.08943,0 14.64721,6.557785 14.64721,14.647215 z" transform="matrix(0.70226141,0.71191917,-0.71191917,0.70226141,326.46319,239.09817)"/><path style="fill:none;stroke:#000;stroke-width:3;stroke-opacity:1" id="path2991-05-8-7-4" d="m 335.37063,114.43555 c 0,8.08943 -6.55778,14.64721 -14.64721,14.64721 -8.08943,0 -14.64721,-6.55778 -14.64721,-14.64721 0,-8.08943 6.55778,-14.647215 14.64721,-14.647215 8.08943,0 14.64721,6.557785 14.64721,14.647215 z" transform="matrix(0.70226141,0.71191917,-0.71191917,0.70226141,284.03678,183.53977)"/><path style="fill:none;stroke:#000;stroke-width:3;stroke-opacity:1" id="path2991-05-8-7-8-5" d="m 335.37063,114.43555 c 0,8.08943 -6.55778,14.64721 -14.64721,14.64721 -8.08943,0 -14.64721,-6.55778 -14.64721,-14.64721 0,-8.08943 6.55778,-14.647215 14.64721,-14.647215 8.08943,0 14.64721,6.557785 14.64721,14.647215 z" transform="matrix(0.70226141,0.71191917,-0.71191917,0.70226141,258.78297,215.86466)"/><path style="fill:none;stroke:#000;stroke-width:3;stroke-opacity:1" id="path2991-05-8-7-2-5" d="m 335.37063,114.43555 c 0,8.08943 -6.55778,14.64721 -14.64721,14.64721 -8.08943,0 -14.64721,-6.55778 -14.64721,-14.64721 0,-8.08943 6.55778,-14.647215 14.64721,-14.647215 8.08943,0 14.64721,6.557785 14.64721,14.647215 z" transform="matrix(0.70226141,0.71191917,-0.71191917,0.70226141,288.07738,244.14893)"/><path style="fill:none;stroke:#000;stroke-width:1.45564234px;stroke-linecap:butt;stroke-linejoin:miter;stroke-opacity:1" id="path3312" d="M 134.13262,539.98702 90.121245,430.33603"/><path style="fill:none;stroke:#000;stroke-width:1.09486485px;stroke-linecap:butt;stroke-linejoin:miter;stroke-opacity:1" id="path3316" d="M 156.53636,430.15563 121.25559,532.08619"/><path style="fill:none;stroke:#000;stroke-width:2.54391861px;stroke-linecap:butt;stroke-linejoin:miter;stroke-opacity:1" id="path3318" d="m 185.62988,432.85987 63.10584,243.92315"/><path style="fill:none;stroke:#000;stroke-width:1.21991837px;stroke-linecap:butt;stroke-linejoin:miter;stroke-opacity:1" id="path3320" d="m 137.49071,431.22833 26.04404,101.80548"/><path style="fill:none;stroke:#000;stroke-width:1.40885973px;stroke-linecap:butt;stroke-linejoin:miter;stroke-opacity:1" id="path3322" d="M 116.97328,432.33294 86.067391,534.95965"/><path style="fill:none;stroke:#000;stroke-width:1;stroke-linecap:butt;stroke-linejoin:miter;stroke-opacity:1" id="path3069-8-3" d="m 614.92933,428.8567 -33.83807,75.23402"/><flowRoot id="flowRoot3131-3-8" transform="translate(55.711222,236.92928)" xml:space="preserve" style="font-size:40px;font-style:normal;font-weight:400;text-align:center;line-height:125%;letter-spacing:0;word-spacing:0;text-anchor:middle;fill:#000;fill-opacity:1;stroke:none;font-family:Sans"><flowRegion id="flowRegion3133-3-2"><rect id="rect3135-6-7" width="174.756" height="113.137" x="510.127" y="126.052" style="text-align:center;text-anchor:middle"/></flowRegion><flowPara id="flowPara3137-5-0" style="font-size:25px;text-align:center;text-anchor:middle">Level 2 Validators</flowPara></flowRoot><path style="fill:none;stroke:#000;stroke-width:3;stroke-opacity:1" id="path3178-0" d="m 729.33014,523.5473 c 0,27.61565 -158.06511,50.00255 -353.04831,50.00255 -194.9832,0 -353.048309,-22.3869 -353.048309,-50.00255 0,-27.61564 158.065109,-50.00255 353.048309,-50.00255 194.9832,0 353.04831,22.38691 353.04831,50.00255 z" transform="translate(-2.5253853,304.56102)"/><flowRoot id="flowRoot3131-2-0" transform="translate(62.895643,755.13753)" xml:space="preserve" style="font-size:40px;font-style:normal;font-weight:400;line-height:125%;letter-spacing:0;word-spacing:0;fill:#000;fill-opacity:1;stroke:none;font-family:Sans"><flowRegion id="flowRegion3133-9-0"><rect id="rect3135-2-0" width="174.756" height="113.137" x="510.127" y="126.052"/></flowRegion><flowPara id="flowPara3137-7-3" style="font-size:25px">Level 2 State</flowPara></flowRoot><flowRoot id="flowRoot3416" xml:space="preserve" style="font-size:40px;font-style:normal;font-weight:400;line-height:125%;letter-spacing:0;word-spacing:0;fill:#000;fill-opacity:1;stroke:none;font-family:Sans"><flowRegion id="flowRegion3418"><rect id="rect3420" width="968.736" height="537.401" x="-164.655" y="36.149"/></flowRegion><flowPara id="flowPara3422"/></flowRoot><path style="fill:none;stroke:#000;stroke-width:1.29746187px;stroke-linecap:butt;stroke-linejoin:miter;stroke-opacity:1" id="path3322-0" d="M 176.1229,431.26709 151.16653,539.05596"/><flowRoot id="flowRoot3131-3-8-4" transform="translate(-494.9558,443.53784)" xml:space="preserve" style="font-size:40px;font-style:normal;font-weight:400;text-align:center;line-height:125%;letter-spacing:0;word-spacing:0;text-anchor:middle;fill:#000;fill-opacity:1;stroke:none;font-family:Sans"><flowRegion id="flowRegion3133-3-2-7"><rect id="rect3135-6-7-3" width="174.756" height="113.137" x="510.127" y="126.052" style="text-align:center;text-anchor:middle"/></flowRegion><flowPara id="flowPara3137-5-0-0" style="font-size:25px;text-align:center;text-anchor:middle">L2 subspace root modifications</flowPara></flowRoot><path style="fill:none;stroke:#000;stroke-width:1.45564234px;stroke-linecap:butt;stroke-linejoin:miter;stroke-opacity:1" id="path3312-2" d="M 294.99941,843.53787 250.98804,733.88688"/><path style="fill:none;stroke:#000;stroke-width:1.09486485px;stroke-linecap:butt;stroke-linejoin:miter;stroke-opacity:1" id="path3316-5" d="M 317.40315,733.70648 282.12238,835.63704"/><path style="fill:none;stroke:#000;stroke-width:1.21991837px;stroke-linecap:butt;stroke-linejoin:miter;stroke-opacity:1" id="path3320-4" d="m 298.3575,734.77918 26.04404,101.80548"/><path style="fill:none;stroke:#000;stroke-width:1.40885973px;stroke-linecap:butt;stroke-linejoin:miter;stroke-opacity:1" id="path3322-1" d="M 277.84007,735.88379 246.93419,838.5105"/><path style="fill:none;stroke:#000;stroke-width:1.29746187px;stroke-linecap:butt;stroke-linejoin:miter;stroke-opacity:1" id="path3322-0-7" d="M 336.98969,734.81794 312.03332,842.60681"/><path style="fill:none;stroke:#000;stroke-width:1.14724553;stroke-linecap:butt;stroke-linejoin:miter;stroke-opacity:1" id="path3320-4-5" d="M 593.62541,552.18605 355.91799,678.75637"/><path style="fill:none;stroke:#000;stroke-width:.73962384;stroke-linecap:butt;stroke-linejoin:miter;stroke-opacity:1" id="path3320-4-5-1" d="M 395.33424,536.32488 306.72178,677.44495"/><path style="fill:none;stroke:#000;stroke-width:1.21896303;stroke-linecap:butt;stroke-linejoin:miter;stroke-opacity:1" id="path3320-4-5-18" d="M 530.45501,510.30058 328.17465,678.21543"/><flowRoot id="flowRoot3131-3-9" transform="translate(-466.67152,258.67992)" xml:space="preserve" style="font-size:40px;font-style:normal;font-weight:400;line-height:125%;letter-spacing:0;word-spacing:0;fill:#000;fill-opacity:1;stroke:none;font-family:Sans"><flowRegion id="flowRegion3133-3-27"><rect id="rect3135-6-4" width="174.756" height="113.137" x="510.127" y="126.052"/></flowRegion><flowPara id="flowPara3137-5-8" style="font-size:25px;text-align:center;text-anchor:middle">L1 collation</flowPara></flowRoot><flowRoot id="flowRoot3131-3-9-8" transform="translate(-308.7642,563.20855)" xml:space="preserve" style="font-size:40px;font-style:normal;font-weight:400;line-height:125%;letter-spacing:0;word-spacing:0;fill:#000;fill-opacity:1;stroke:none;font-family:Sans"><flowRegion id="flowRegion3133-3-27-4"><rect id="rect3135-6-4-8" width="174.756" height="113.137" x="510.127" y="126.052"/></flowRegion><flowPara id="flowPara3137-5-8-4" style="font-size:25px;text-align:center;text-anchor:middle">L2 collation</flowPara></flowRoot><flowRoot id="flowRoot3131-3-8-4-5" transform="translate(-377.80554,756.21241)" xml:space="preserve" style="font-size:40px;font-style:normal;font-weight:400;text-align:center;line-height:125%;letter-spacing:0;word-spacing:0;text-anchor:middle;fill:#000;fill-opacity:1;stroke:none;font-family:Sans"><flowRegion id="flowRegion3133-3-2-7-7"><rect id="rect3135-6-7-3-2" width="174.756" height="113.137" x="510.127" y="126.052" style="text-align:center;text-anchor:middle"/></flowRegion><flowPara id="flowPara3137-5-0-0-0" style="font-size:25px;text-align:center;text-anchor:middle">Bottom-level state modifications</flowPara></flowRoot><flowRoot id="flowRoot3244" transform="translate(50.507627,-15.152288)" xml:space="preserve" style="font-size:40px;font-style:normal;font-weight:400;line-height:125%;letter-spacing:0;word-spacing:0;fill:#000;fill-opacity:1;stroke:none;font-family:Sans"><flowRegion id="flowRegion3246"><rect id="rect3248" width="186.878" height="88.893" x="456.589" y="693.758"/></flowRegion><flowPara id="flowPara3250" style="font-size:16px">Validator set for L3 block (Merkle proofs from header chain provided)</flowPara></flowRoot><path style="fill:none;stroke:#000;stroke-width:1.28157592px;stroke-linecap:butt;stroke-linejoin:miter;stroke-opacity:1" id="path3320-2" d="m 454.70944,626.72367 46.18543,63.35802"/></g></svg>