<svg xmlns="http://www.w3.org/2000/svg" xmlns:svg="http://www.w3.org/2000/svg" id="svg5735" width="933.023" height="519.825" version="1.1"><metadata id="metadata5740"/><g id="layer1" transform="translate(-57.282013,-485.1479)"><path style="fill:none;stroke:#000;stroke-width:2.98575735;stroke-linecap:butt;stroke-linejoin:miter;stroke-opacity:1" id="path5743" d="m 189.99288,772.3693 654.29996,-1.44281"/><path style="fill:none;stroke:#000;stroke-width:3;stroke-linecap:butt;stroke-linejoin:miter;stroke-opacity:1" id="path5745" d="m 188.57143,181.23734 4.28571,512.85714" transform="translate(0,308.2677)"/><flowRoot id="flowRoot5747" transform="translate(-4.0000004,318.2677)" xml:space="preserve" style="font-size:40px;font-style:normal;font-weight:400;line-height:125%;letter-spacing:0;word-spacing:0;fill:#000;fill-opacity:1;stroke:none;font-family:Sans"><flowRegion id="flowRegion5749"><rect id="rect5751" width="172.857" height="127.143" x="857.143" y="439.809"/></flowRegion><flowPara id="flowPara5753" style="font-size:20px">% who vote A</flowPara></flowRoot><flowRoot id="flowRoot5747-4" transform="translate(-800.46994,249.36701)" xml:space="preserve" style="font-size:40px;font-style:normal;font-weight:400;line-height:125%;letter-spacing:0;word-spacing:0;fill:#000;fill-opacity:1;stroke:none;font-family:Sans"><flowRegion id="flowRegion5749-6"><rect id="rect5751-3" width="172.857" height="127.143" x="857.143" y="439.809"/></flowRegion><flowPara id="flowPara5753-7" style="font-size:20px">Reward for voting A</flowPara></flowRoot><flowRoot id="flowRoot5747-4-3" transform="translate(-798.90185,180.74499)" xml:space="preserve" style="font-size:40px;font-style:normal;font-weight:400;line-height:125%;letter-spacing:0;word-spacing:0;fill:#000;fill-opacity:1;stroke:none;font-family:Sans"><flowRegion id="flowRegion5749-6-2"><rect id="rect5751-3-4" width="172.857" height="127.143" x="857.143" y="439.809"/></flowRegion><flowPara id="flowPara5753-7-6" style="font-size:20px">Reward for voting B</flowPara></flowRoot><path style="fill:none;stroke:#0f0;stroke-width:3.03594661;stroke-linecap:butt;stroke-linejoin:miter;stroke-opacity:1" id="path5811" d="m 192.30368,716.63005 c 30.31686,2.05646 60.90151,0.13031 90.72084,-5.7134 23.45477,-4.59644 46.396,-11.59705 68.77225,-19.99687 21.61232,-8.11304 42.92817,-17.65301 61.45605,-31.42369 14.293,-10.62314 26.77809,-23.69786 36.58099,-38.56541 9.56888,-14.51262 16.53311,-30.61729 21.94858,-47.13553 5.51473,-16.821 9.45983,-34.11163 13.16915,-51.42056 2.54602,-11.88059 4.98489,-23.78414 7.3162,-35.70872"/><path style="fill:none;stroke:red;stroke-width:3.05020499;stroke-linecap:butt;stroke-linejoin:miter;stroke-opacity:1" id="path5811-7" d="m 189.31081,643.49774 c 30.60265,-2.05956 61.47122,-0.1339 91.58064,5.71305 23.66712,4.59592 46.82555,11.59542 69.42403,19.99564 21.80019,8.10348 43.31043,17.63137 62.0385,31.42174 14.4043,10.60657 27.01636,23.6718 36.92768,38.56303 9.6478,14.49531 16.68477,30.60224 22.1566,47.13261 5.56578,16.81418 9.54887,34.10645 13.29396,51.41739 2.57003,11.87945 5.03201,23.78227 7.38554,35.7065"/><path style="fill:none;stroke:red;stroke-width:3.05730867;stroke-linecap:butt;stroke-linejoin:miter;stroke-opacity:1" id="path5811-5" d="m 843.54279,716.93739 c -30.74556,2.06108 -61.75609,0.13566 -92.01055,-5.71287 -23.77333,-4.59565 -47.04037,-11.59461 -69.74993,-19.99502 -21.89413,-8.09878 -43.50152,-17.62071 -62.32972,-31.42078 -14.45992,-10.59835 -27.13542,-23.65879 -37.10103,-38.56184 -9.68718,-14.48667 -16.76055,-30.5947 -22.26061,-47.13116 -5.59129,-16.81075 -9.59339,-34.10384 -13.35637,-51.4158 -2.58203,-11.87889 -5.05557,-23.78135 -7.42021,-35.70542"/><path style="fill:none;stroke:#0f0;stroke-width:3.0643959;stroke-linecap:butt;stroke-linejoin:miter;stroke-opacity:1" id="path5811-7-7" d="m 844.11067,772.64765 c -30.88847,-2.06258 -62.04098,-0.1374 -92.44045,5.71269 -23.87956,4.5954 -47.25521,11.59382 -70.07584,19.99441 -21.98809,8.09412 -43.69258,17.61013 -62.62095,31.41981 -14.51553,10.59018 -27.25444,23.6458 -37.27438,38.56066 -9.72649,14.47805 -16.8363,30.58716 -22.36462,47.12972 -5.6168,16.80732 -9.6379,34.10124 -13.41878,51.41422 -2.59403,11.87829 -5.07913,23.78037 -7.45487,35.70424"/><path style="fill:none;stroke:#0f0;stroke-width:2.55406785;stroke-linecap:butt;stroke-linejoin:miter;stroke-opacity:1" id="path6383" d="m 491.2056,489.28207 47.5888,513.30313"/><path style="fill:none;stroke:red;stroke-width:3;stroke-linecap:butt;stroke-linejoin:miter;stroke-opacity:1" id="path6383-4" d="M 538.99421,489.79654 493.86293,874.92789"/><text style="font-size:40px;font-style:normal;font-weight:400;line-height:125%;letter-spacing:0;word-spacing:0;fill:#000;fill-opacity:1;stroke:none;font-family:Sans" id="text7059" x="277.282" y="526.401" xml:space="preserve"><tspan id="tspan7061" x="277.282" y="526.401" style="font-size:20px">Equilibrium</tspan></text><path style="fill:none;stroke:#000;stroke-width:2;stroke-linecap:butt;stroke-linejoin:miter;stroke-opacity:1" id="path7063" d="M 320,189.82489 282.85714,46.967747" transform="translate(57.282013,485.1479)"/><path style="fill:none;stroke:#000;stroke-width:2;stroke-linecap:butt;stroke-linejoin:miter;stroke-opacity:1" id="path7065" d="m 389.90049,656.64002 -10.95124,19.52267"/><path style="fill:none;stroke:#000;stroke-width:2;stroke-linecap:butt;stroke-linejoin:miter;stroke-opacity:1" id="path7067" d="m 302.85714,179.82489 18.57143,11.42857" transform="translate(57.282013,485.1479)"/></g></svg>